%TF.GenerationSoftware,KiCad,Pcbnew,9.0.5*%
%TF.CreationDate,2026-03-27T15:19:33-04:00*%
%TF.ProjectId,ROMRAMCart_v1_0,524f4d52-414d-4436-9172-745f76315f30,rev?*%
%TF.SameCoordinates,Original*%
%TF.FileFunction,Legend,Bot*%
%TF.FilePolarity,Positive*%
%FSLAX46Y46*%
G04 Gerber Fmt 4.6, Leading zero omitted, Abs format (unit mm)*
G04 Created by KiCad (PCBNEW 9.0.5) date 2026-03-27 15:19:33*
%MOMM*%
%LPD*%
G01*
G04 APERTURE LIST*
%ADD10C,0.010000*%
G04 APERTURE END LIST*
D10*
%TO.C,REF\u002A\u002A*%
X100600725Y-125336619D02*
X100721261Y-125381393D01*
X100771388Y-125415034D01*
X100822152Y-125463236D01*
X100858362Y-125524551D01*
X100882393Y-125608024D01*
X100896618Y-125722697D01*
X100903412Y-125877613D01*
X100905149Y-126081814D01*
X100904809Y-126187341D01*
X100903101Y-126331541D01*
X100900201Y-126446620D01*
X100896384Y-126522822D01*
X100891925Y-126550391D01*
X100862909Y-126541272D01*
X100804339Y-126516509D01*
X100802581Y-126515707D01*
X100772167Y-126499785D01*
X100751712Y-126477938D01*
X100739240Y-126439672D01*
X100732777Y-126374495D01*
X100730348Y-126271913D01*
X100729977Y-126121433D01*
X100729229Y-126025974D01*
X100721256Y-125846571D01*
X100702998Y-125715163D01*
X100672526Y-125624859D01*
X100627912Y-125568767D01*
X100567226Y-125539994D01*
X100558807Y-125537989D01*
X100445139Y-125536423D01*
X100356492Y-125587348D01*
X100295265Y-125689445D01*
X100284346Y-125718961D01*
X100259458Y-125784283D01*
X100246854Y-125814300D01*
X100220969Y-125810164D01*
X100164439Y-125787717D01*
X100111715Y-125750647D01*
X100087678Y-125680587D01*
X100094847Y-125630406D01*
X100138897Y-125528618D01*
X100210123Y-125433235D01*
X100293415Y-125367269D01*
X100328310Y-125352018D01*
X100460443Y-125326521D01*
X100600725Y-125336619D01*
G36*
X100600725Y-125336619D02*
G01*
X100721261Y-125381393D01*
X100771388Y-125415034D01*
X100822152Y-125463236D01*
X100858362Y-125524551D01*
X100882393Y-125608024D01*
X100896618Y-125722697D01*
X100903412Y-125877613D01*
X100905149Y-126081814D01*
X100904809Y-126187341D01*
X100903101Y-126331541D01*
X100900201Y-126446620D01*
X100896384Y-126522822D01*
X100891925Y-126550391D01*
X100862909Y-126541272D01*
X100804339Y-126516509D01*
X100802581Y-126515707D01*
X100772167Y-126499785D01*
X100751712Y-126477938D01*
X100739240Y-126439672D01*
X100732777Y-126374495D01*
X100730348Y-126271913D01*
X100729977Y-126121433D01*
X100729229Y-126025974D01*
X100721256Y-125846571D01*
X100702998Y-125715163D01*
X100672526Y-125624859D01*
X100627912Y-125568767D01*
X100567226Y-125539994D01*
X100558807Y-125537989D01*
X100445139Y-125536423D01*
X100356492Y-125587348D01*
X100295265Y-125689445D01*
X100284346Y-125718961D01*
X100259458Y-125784283D01*
X100246854Y-125814300D01*
X100220969Y-125810164D01*
X100164439Y-125787717D01*
X100111715Y-125750647D01*
X100087678Y-125680587D01*
X100094847Y-125630406D01*
X100138897Y-125528618D01*
X100210123Y-125433235D01*
X100293415Y-125367269D01*
X100328310Y-125352018D01*
X100460443Y-125326521D01*
X100600725Y-125336619D01*
G37*
X108542487Y-125269689D02*
X108678848Y-125333770D01*
X108790598Y-125444584D01*
X108813761Y-125479273D01*
X108832973Y-125518590D01*
X108846598Y-125568145D01*
X108855877Y-125637568D01*
X108862050Y-125736490D01*
X108866357Y-125874539D01*
X108870038Y-126061346D01*
X108879180Y-126579542D01*
X108802383Y-126550344D01*
X108732068Y-126523520D01*
X108679424Y-126497706D01*
X108645060Y-126464431D01*
X108625093Y-126413510D01*
X108615639Y-126334761D01*
X108612814Y-126217999D01*
X108612736Y-126053042D01*
X108612336Y-125921558D01*
X108609951Y-125795394D01*
X108604259Y-125709223D01*
X108593961Y-125652672D01*
X108577755Y-125615370D01*
X108554345Y-125586943D01*
X108496793Y-125546827D01*
X108400112Y-125531706D01*
X108304465Y-125569917D01*
X108298152Y-125574810D01*
X108278477Y-125597413D01*
X108263963Y-125633664D01*
X108253394Y-125692511D01*
X108245555Y-125782901D01*
X108239227Y-125913779D01*
X108233195Y-126094095D01*
X108218598Y-126576907D01*
X108094517Y-126521283D01*
X107970437Y-126465659D01*
X107970437Y-126024851D01*
X107970951Y-125905098D01*
X107975380Y-125738506D01*
X107986594Y-125614468D01*
X108007272Y-125522987D01*
X108040093Y-125454066D01*
X108087736Y-125397707D01*
X108152877Y-125343914D01*
X108246571Y-125289719D01*
X108394175Y-125254339D01*
X108542487Y-125269689D01*
G36*
X108542487Y-125269689D02*
G01*
X108678848Y-125333770D01*
X108790598Y-125444584D01*
X108813761Y-125479273D01*
X108832973Y-125518590D01*
X108846598Y-125568145D01*
X108855877Y-125637568D01*
X108862050Y-125736490D01*
X108866357Y-125874539D01*
X108870038Y-126061346D01*
X108879180Y-126579542D01*
X108802383Y-126550344D01*
X108732068Y-126523520D01*
X108679424Y-126497706D01*
X108645060Y-126464431D01*
X108625093Y-126413510D01*
X108615639Y-126334761D01*
X108612814Y-126217999D01*
X108612736Y-126053042D01*
X108612336Y-125921558D01*
X108609951Y-125795394D01*
X108604259Y-125709223D01*
X108593961Y-125652672D01*
X108577755Y-125615370D01*
X108554345Y-125586943D01*
X108496793Y-125546827D01*
X108400112Y-125531706D01*
X108304465Y-125569917D01*
X108298152Y-125574810D01*
X108278477Y-125597413D01*
X108263963Y-125633664D01*
X108253394Y-125692511D01*
X108245555Y-125782901D01*
X108239227Y-125913779D01*
X108233195Y-126094095D01*
X108218598Y-126576907D01*
X108094517Y-126521283D01*
X107970437Y-126465659D01*
X107970437Y-126024851D01*
X107970951Y-125905098D01*
X107975380Y-125738506D01*
X107986594Y-125614468D01*
X108007272Y-125522987D01*
X108040093Y-125454066D01*
X108087736Y-125397707D01*
X108152877Y-125343914D01*
X108246571Y-125289719D01*
X108394175Y-125254339D01*
X108542487Y-125269689D01*
G37*
X104874872Y-125367536D02*
X104884090Y-125372638D01*
X104959381Y-125431080D01*
X105026698Y-125506215D01*
X105038439Y-125523196D01*
X105060883Y-125562825D01*
X105076918Y-125609858D01*
X105087945Y-125674492D01*
X105095365Y-125766923D01*
X105100579Y-125897349D01*
X105104989Y-126075965D01*
X105105614Y-126106162D01*
X105107620Y-126301941D01*
X105104792Y-126440603D01*
X105097088Y-126523103D01*
X105084466Y-126550391D01*
X105046267Y-126542220D01*
X104981374Y-126517463D01*
X104966094Y-126510223D01*
X104942227Y-126493835D01*
X104925769Y-126466893D01*
X104915005Y-126419833D01*
X104908219Y-126343088D01*
X104903693Y-126227095D01*
X104899713Y-126062287D01*
X104898622Y-126014112D01*
X104894407Y-125861960D01*
X104888936Y-125755476D01*
X104880554Y-125684565D01*
X104867606Y-125639129D01*
X104848439Y-125609072D01*
X104821398Y-125584296D01*
X104741337Y-125540861D01*
X104642846Y-125532498D01*
X104554719Y-125565734D01*
X104491314Y-125634548D01*
X104466988Y-125732920D01*
X104466311Y-125759658D01*
X104453024Y-125808065D01*
X104413796Y-125815450D01*
X104336983Y-125786624D01*
X104319192Y-125777378D01*
X104271109Y-125723006D01*
X104270157Y-125642161D01*
X104315968Y-125530352D01*
X104357990Y-125469419D01*
X104465435Y-125382859D01*
X104598057Y-125333920D01*
X104739867Y-125327260D01*
X104874872Y-125367536D01*
G36*
X104874872Y-125367536D02*
G01*
X104884090Y-125372638D01*
X104959381Y-125431080D01*
X105026698Y-125506215D01*
X105038439Y-125523196D01*
X105060883Y-125562825D01*
X105076918Y-125609858D01*
X105087945Y-125674492D01*
X105095365Y-125766923D01*
X105100579Y-125897349D01*
X105104989Y-126075965D01*
X105105614Y-126106162D01*
X105107620Y-126301941D01*
X105104792Y-126440603D01*
X105097088Y-126523103D01*
X105084466Y-126550391D01*
X105046267Y-126542220D01*
X104981374Y-126517463D01*
X104966094Y-126510223D01*
X104942227Y-126493835D01*
X104925769Y-126466893D01*
X104915005Y-126419833D01*
X104908219Y-126343088D01*
X104903693Y-126227095D01*
X104899713Y-126062287D01*
X104898622Y-126014112D01*
X104894407Y-125861960D01*
X104888936Y-125755476D01*
X104880554Y-125684565D01*
X104867606Y-125639129D01*
X104848439Y-125609072D01*
X104821398Y-125584296D01*
X104741337Y-125540861D01*
X104642846Y-125532498D01*
X104554719Y-125565734D01*
X104491314Y-125634548D01*
X104466988Y-125732920D01*
X104466311Y-125759658D01*
X104453024Y-125808065D01*
X104413796Y-125815450D01*
X104336983Y-125786624D01*
X104319192Y-125777378D01*
X104271109Y-125723006D01*
X104270157Y-125642161D01*
X104315968Y-125530352D01*
X104357990Y-125469419D01*
X104465435Y-125382859D01*
X104598057Y-125333920D01*
X104739867Y-125327260D01*
X104874872Y-125367536D01*
G37*
X102956410Y-125332970D02*
X103020442Y-125358066D01*
X103094805Y-125391947D01*
X103094805Y-126370727D01*
X103002415Y-126463117D01*
X102981310Y-126483835D01*
X102922847Y-126529885D01*
X102863886Y-126544801D01*
X102776150Y-126537934D01*
X102740429Y-126533494D01*
X102648301Y-126524102D01*
X102583885Y-126520361D01*
X102564778Y-126520933D01*
X102486390Y-126527126D01*
X102391620Y-126537934D01*
X102361298Y-126541647D01*
X102284911Y-126543107D01*
X102229022Y-126520047D01*
X102165355Y-126463117D01*
X102072965Y-126370727D01*
X102072965Y-125847455D01*
X102073685Y-125692821D01*
X102075929Y-125545391D01*
X102079421Y-125428653D01*
X102083876Y-125351840D01*
X102089013Y-125324184D01*
X102090090Y-125324258D01*
X102127407Y-125338019D01*
X102190457Y-125368344D01*
X102275854Y-125412505D01*
X102283893Y-125871965D01*
X102291931Y-126331425D01*
X102467103Y-126331425D01*
X102475092Y-125827805D01*
X102477624Y-125690904D01*
X102481249Y-125544579D01*
X102485177Y-125428411D01*
X102489080Y-125351809D01*
X102492632Y-125324184D01*
X102493653Y-125324281D01*
X102529051Y-125334443D01*
X102594126Y-125356235D01*
X102686069Y-125388287D01*
X102686516Y-125830661D01*
X102686964Y-125907507D01*
X102690069Y-126056834D01*
X102695622Y-126181544D01*
X102703033Y-126270379D01*
X102711714Y-126312083D01*
X102742771Y-126334389D01*
X102806152Y-126341278D01*
X102875839Y-126331425D01*
X102883827Y-125827805D01*
X102886686Y-125699828D01*
X102892614Y-125548348D01*
X102900365Y-125429530D01*
X102909343Y-125351950D01*
X102918948Y-125324184D01*
X102956410Y-125332970D01*
G36*
X102956410Y-125332970D02*
G01*
X103020442Y-125358066D01*
X103094805Y-125391947D01*
X103094805Y-126370727D01*
X103002415Y-126463117D01*
X102981310Y-126483835D01*
X102922847Y-126529885D01*
X102863886Y-126544801D01*
X102776150Y-126537934D01*
X102740429Y-126533494D01*
X102648301Y-126524102D01*
X102583885Y-126520361D01*
X102564778Y-126520933D01*
X102486390Y-126527126D01*
X102391620Y-126537934D01*
X102361298Y-126541647D01*
X102284911Y-126543107D01*
X102229022Y-126520047D01*
X102165355Y-126463117D01*
X102072965Y-126370727D01*
X102072965Y-125847455D01*
X102073685Y-125692821D01*
X102075929Y-125545391D01*
X102079421Y-125428653D01*
X102083876Y-125351840D01*
X102089013Y-125324184D01*
X102090090Y-125324258D01*
X102127407Y-125338019D01*
X102190457Y-125368344D01*
X102275854Y-125412505D01*
X102283893Y-125871965D01*
X102291931Y-126331425D01*
X102467103Y-126331425D01*
X102475092Y-125827805D01*
X102477624Y-125690904D01*
X102481249Y-125544579D01*
X102485177Y-125428411D01*
X102489080Y-125351809D01*
X102492632Y-125324184D01*
X102493653Y-125324281D01*
X102529051Y-125334443D01*
X102594126Y-125356235D01*
X102686069Y-125388287D01*
X102686516Y-125830661D01*
X102686964Y-125907507D01*
X102690069Y-126056834D01*
X102695622Y-126181544D01*
X102703033Y-126270379D01*
X102711714Y-126312083D01*
X102742771Y-126334389D01*
X102806152Y-126341278D01*
X102875839Y-126331425D01*
X102883827Y-125827805D01*
X102886686Y-125699828D01*
X102892614Y-125548348D01*
X102900365Y-125429530D01*
X102909343Y-125351950D01*
X102918948Y-125324184D01*
X102956410Y-125332970D01*
G37*
X107028885Y-124930997D02*
X107123770Y-124971020D01*
X107123770Y-125760706D01*
X107123769Y-125769920D01*
X107123377Y-125977083D01*
X107122329Y-126163432D01*
X107120722Y-126321453D01*
X107118655Y-126443630D01*
X107116225Y-126522448D01*
X107113529Y-126550391D01*
X107112475Y-126550297D01*
X107076647Y-126540144D01*
X107011345Y-126518339D01*
X106919402Y-126486288D01*
X106919402Y-126074991D01*
X106918818Y-125913385D01*
X106916104Y-125796177D01*
X106909858Y-125716415D01*
X106898680Y-125663531D01*
X106881168Y-125626957D01*
X106855922Y-125596123D01*
X106838710Y-125579725D01*
X106745636Y-125534307D01*
X106643051Y-125538328D01*
X106549043Y-125592032D01*
X106535358Y-125605359D01*
X106513439Y-125633032D01*
X106498440Y-125669614D01*
X106489053Y-125725000D01*
X106483968Y-125809088D01*
X106481877Y-125931773D01*
X106481471Y-126102951D01*
X106481276Y-126189769D01*
X106480010Y-126332565D01*
X106477761Y-126446923D01*
X106474758Y-126522860D01*
X106471230Y-126550391D01*
X106470176Y-126550297D01*
X106434348Y-126540144D01*
X106369046Y-126518339D01*
X106277103Y-126486288D01*
X106277149Y-126073109D01*
X106277218Y-126036326D01*
X106281081Y-125844580D01*
X106292950Y-125699586D01*
X106315725Y-125591510D01*
X106352307Y-125510519D01*
X106405595Y-125446778D01*
X106478490Y-125390455D01*
X106549586Y-125355199D01*
X106663255Y-125327946D01*
X106775060Y-125326398D01*
X106861011Y-125352910D01*
X106867473Y-125356571D01*
X106887401Y-125356179D01*
X106901019Y-125325506D01*
X106910846Y-125255188D01*
X106919402Y-125135857D01*
X106934000Y-124890973D01*
X107028885Y-124930997D01*
G36*
X107028885Y-124930997D02*
G01*
X107123770Y-124971020D01*
X107123770Y-125760706D01*
X107123769Y-125769920D01*
X107123377Y-125977083D01*
X107122329Y-126163432D01*
X107120722Y-126321453D01*
X107118655Y-126443630D01*
X107116225Y-126522448D01*
X107113529Y-126550391D01*
X107112475Y-126550297D01*
X107076647Y-126540144D01*
X107011345Y-126518339D01*
X106919402Y-126486288D01*
X106919402Y-126074991D01*
X106918818Y-125913385D01*
X106916104Y-125796177D01*
X106909858Y-125716415D01*
X106898680Y-125663531D01*
X106881168Y-125626957D01*
X106855922Y-125596123D01*
X106838710Y-125579725D01*
X106745636Y-125534307D01*
X106643051Y-125538328D01*
X106549043Y-125592032D01*
X106535358Y-125605359D01*
X106513439Y-125633032D01*
X106498440Y-125669614D01*
X106489053Y-125725000D01*
X106483968Y-125809088D01*
X106481877Y-125931773D01*
X106481471Y-126102951D01*
X106481276Y-126189769D01*
X106480010Y-126332565D01*
X106477761Y-126446923D01*
X106474758Y-126522860D01*
X106471230Y-126550391D01*
X106470176Y-126550297D01*
X106434348Y-126540144D01*
X106369046Y-126518339D01*
X106277103Y-126486288D01*
X106277149Y-126073109D01*
X106277218Y-126036326D01*
X106281081Y-125844580D01*
X106292950Y-125699586D01*
X106315725Y-125591510D01*
X106352307Y-125510519D01*
X106405595Y-125446778D01*
X106478490Y-125390455D01*
X106549586Y-125355199D01*
X106663255Y-125327946D01*
X106775060Y-125326398D01*
X106861011Y-125352910D01*
X106867473Y-125356571D01*
X106887401Y-125356179D01*
X106901019Y-125325506D01*
X106910846Y-125255188D01*
X106919402Y-125135857D01*
X106934000Y-124890973D01*
X107028885Y-124930997D01*
G37*
X112232965Y-125908092D02*
X112232938Y-125939744D01*
X112231355Y-126080918D01*
X112225916Y-126179285D01*
X112214643Y-126247990D01*
X112195561Y-126300181D01*
X112166694Y-126349004D01*
X112159592Y-126359135D01*
X112084444Y-126439012D01*
X111998820Y-126499253D01*
X111954852Y-126518802D01*
X111796861Y-126551408D01*
X111640613Y-126530317D01*
X111496618Y-126458249D01*
X111375385Y-126337922D01*
X111365150Y-126321803D01*
X111331847Y-126228205D01*
X111309405Y-126097879D01*
X111298516Y-125947371D01*
X111299740Y-125808147D01*
X111594384Y-125808147D01*
X111596706Y-126001020D01*
X111597639Y-126013433D01*
X111611242Y-126119857D01*
X111635465Y-126187346D01*
X111676365Y-126233584D01*
X111744941Y-126276895D01*
X111812764Y-126279172D01*
X111882621Y-126229241D01*
X111894771Y-126216102D01*
X111918575Y-126176785D01*
X111932628Y-126119674D01*
X111939313Y-126031256D01*
X111941011Y-125898019D01*
X111938101Y-125773222D01*
X111923582Y-125654326D01*
X111893610Y-125579184D01*
X111844589Y-125539893D01*
X111772924Y-125528552D01*
X111745632Y-125530807D01*
X111669176Y-125572160D01*
X111618650Y-125664900D01*
X111594384Y-125808147D01*
X111299740Y-125808147D01*
X111299871Y-125793227D01*
X111314161Y-125651992D01*
X111342075Y-125540213D01*
X111377949Y-125465766D01*
X111478939Y-125349968D01*
X111615779Y-125278015D01*
X111783283Y-125253281D01*
X111828019Y-125254619D01*
X111959758Y-125282008D01*
X112067968Y-125351007D01*
X112167276Y-125469864D01*
X112173184Y-125478681D01*
X112199921Y-125526108D01*
X112217312Y-125579714D01*
X112227312Y-125652549D01*
X112231878Y-125757659D01*
X112232893Y-125898019D01*
X112232965Y-125908092D01*
G36*
X112232965Y-125908092D02*
G01*
X112232938Y-125939744D01*
X112231355Y-126080918D01*
X112225916Y-126179285D01*
X112214643Y-126247990D01*
X112195561Y-126300181D01*
X112166694Y-126349004D01*
X112159592Y-126359135D01*
X112084444Y-126439012D01*
X111998820Y-126499253D01*
X111954852Y-126518802D01*
X111796861Y-126551408D01*
X111640613Y-126530317D01*
X111496618Y-126458249D01*
X111375385Y-126337922D01*
X111365150Y-126321803D01*
X111331847Y-126228205D01*
X111309405Y-126097879D01*
X111298516Y-125947371D01*
X111299740Y-125808147D01*
X111594384Y-125808147D01*
X111596706Y-126001020D01*
X111597639Y-126013433D01*
X111611242Y-126119857D01*
X111635465Y-126187346D01*
X111676365Y-126233584D01*
X111744941Y-126276895D01*
X111812764Y-126279172D01*
X111882621Y-126229241D01*
X111894771Y-126216102D01*
X111918575Y-126176785D01*
X111932628Y-126119674D01*
X111939313Y-126031256D01*
X111941011Y-125898019D01*
X111938101Y-125773222D01*
X111923582Y-125654326D01*
X111893610Y-125579184D01*
X111844589Y-125539893D01*
X111772924Y-125528552D01*
X111745632Y-125530807D01*
X111669176Y-125572160D01*
X111618650Y-125664900D01*
X111594384Y-125808147D01*
X111299740Y-125808147D01*
X111299871Y-125793227D01*
X111314161Y-125651992D01*
X111342075Y-125540213D01*
X111377949Y-125465766D01*
X111478939Y-125349968D01*
X111615779Y-125278015D01*
X111783283Y-125253281D01*
X111828019Y-125254619D01*
X111959758Y-125282008D01*
X112067968Y-125351007D01*
X112167276Y-125469864D01*
X112173184Y-125478681D01*
X112199921Y-125526108D01*
X112217312Y-125579714D01*
X112227312Y-125652549D01*
X112231878Y-125757659D01*
X112232893Y-125898019D01*
X112232965Y-125908092D01*
G37*
X99912313Y-125943136D02*
X99911744Y-126020946D01*
X99904612Y-126174254D01*
X99885948Y-126286441D01*
X99851537Y-126369554D01*
X99797162Y-126435641D01*
X99718610Y-126496747D01*
X99668630Y-126524535D01*
X99588513Y-126543251D01*
X99475970Y-126541774D01*
X99413050Y-126535845D01*
X99337153Y-126517742D01*
X99276487Y-126478391D01*
X99205912Y-126405066D01*
X99196482Y-126394356D01*
X99133034Y-126311938D01*
X99102762Y-126240156D01*
X99095034Y-126155034D01*
X99095034Y-126029946D01*
X99182447Y-126062940D01*
X99246175Y-126101509D01*
X99301567Y-126192008D01*
X99313131Y-126220983D01*
X99377788Y-126303041D01*
X99465804Y-126344347D01*
X99561637Y-126340633D01*
X99649747Y-126287632D01*
X99680028Y-126254582D01*
X99707489Y-126204720D01*
X99698899Y-126159416D01*
X99649463Y-126112790D01*
X99554389Y-126058958D01*
X99408885Y-125992039D01*
X99109632Y-125861056D01*
X99101691Y-125731298D01*
X99104676Y-125648649D01*
X99299652Y-125648649D01*
X99314453Y-125699815D01*
X99381797Y-125754442D01*
X99504027Y-125816597D01*
X99524253Y-125825601D01*
X99620970Y-125867493D01*
X99693334Y-125896958D01*
X99726961Y-125908092D01*
X99732056Y-125899896D01*
X99734101Y-125849853D01*
X99726812Y-125769414D01*
X99708452Y-125690753D01*
X99651188Y-125591651D01*
X99568524Y-125535808D01*
X99469784Y-125528250D01*
X99364289Y-125574000D01*
X99335053Y-125596876D01*
X99299652Y-125648649D01*
X99104676Y-125648649D01*
X99105196Y-125634255D01*
X99149336Y-125511617D01*
X99205050Y-125444034D01*
X99320561Y-125368540D01*
X99457588Y-125330403D01*
X99599237Y-125333422D01*
X99728617Y-125381393D01*
X99757099Y-125399813D01*
X99822428Y-125456811D01*
X99867106Y-125528916D01*
X99894641Y-125626853D01*
X99908541Y-125761351D01*
X99910378Y-125849853D01*
X99912313Y-125943136D01*
G36*
X99912313Y-125943136D02*
G01*
X99911744Y-126020946D01*
X99904612Y-126174254D01*
X99885948Y-126286441D01*
X99851537Y-126369554D01*
X99797162Y-126435641D01*
X99718610Y-126496747D01*
X99668630Y-126524535D01*
X99588513Y-126543251D01*
X99475970Y-126541774D01*
X99413050Y-126535845D01*
X99337153Y-126517742D01*
X99276487Y-126478391D01*
X99205912Y-126405066D01*
X99196482Y-126394356D01*
X99133034Y-126311938D01*
X99102762Y-126240156D01*
X99095034Y-126155034D01*
X99095034Y-126029946D01*
X99182447Y-126062940D01*
X99246175Y-126101509D01*
X99301567Y-126192008D01*
X99313131Y-126220983D01*
X99377788Y-126303041D01*
X99465804Y-126344347D01*
X99561637Y-126340633D01*
X99649747Y-126287632D01*
X99680028Y-126254582D01*
X99707489Y-126204720D01*
X99698899Y-126159416D01*
X99649463Y-126112790D01*
X99554389Y-126058958D01*
X99408885Y-125992039D01*
X99109632Y-125861056D01*
X99101691Y-125731298D01*
X99104676Y-125648649D01*
X99299652Y-125648649D01*
X99314453Y-125699815D01*
X99381797Y-125754442D01*
X99504027Y-125816597D01*
X99524253Y-125825601D01*
X99620970Y-125867493D01*
X99693334Y-125896958D01*
X99726961Y-125908092D01*
X99732056Y-125899896D01*
X99734101Y-125849853D01*
X99726812Y-125769414D01*
X99708452Y-125690753D01*
X99651188Y-125591651D01*
X99568524Y-125535808D01*
X99469784Y-125528250D01*
X99364289Y-125574000D01*
X99335053Y-125596876D01*
X99299652Y-125648649D01*
X99104676Y-125648649D01*
X99105196Y-125634255D01*
X99149336Y-125511617D01*
X99205050Y-125444034D01*
X99320561Y-125368540D01*
X99457588Y-125330403D01*
X99599237Y-125333422D01*
X99728617Y-125381393D01*
X99757099Y-125399813D01*
X99822428Y-125456811D01*
X99867106Y-125528916D01*
X99894641Y-125626853D01*
X99908541Y-125761351D01*
X99910378Y-125849853D01*
X99912313Y-125943136D01*
G37*
X104116553Y-125937287D02*
X104114219Y-126051135D01*
X104097739Y-126206320D01*
X104061883Y-126322612D01*
X104002455Y-126411411D01*
X103915257Y-126484119D01*
X103832195Y-126526150D01*
X103692709Y-126549538D01*
X103553412Y-126523965D01*
X103427510Y-126452694D01*
X103328210Y-126338991D01*
X103316219Y-126318024D01*
X103300384Y-126281291D01*
X103288638Y-126234415D01*
X103280378Y-126169355D01*
X103274998Y-126078070D01*
X103271892Y-125952519D01*
X103271797Y-125941379D01*
X103474345Y-125941379D01*
X103475035Y-126047644D01*
X103479400Y-126143762D01*
X103490192Y-126205811D01*
X103510126Y-126247502D01*
X103541916Y-126282543D01*
X103549364Y-126289279D01*
X103645060Y-126338992D01*
X103746312Y-126333905D01*
X103840614Y-126274362D01*
X103868694Y-126243514D01*
X103892196Y-126202618D01*
X103905322Y-126146080D01*
X103911030Y-126059657D01*
X103912276Y-125929106D01*
X103911661Y-125829487D01*
X103907407Y-125732251D01*
X103896682Y-125669502D01*
X103876707Y-125627382D01*
X103844704Y-125592032D01*
X103825905Y-125576114D01*
X103728492Y-125533235D01*
X103626437Y-125539985D01*
X103537825Y-125596123D01*
X103518749Y-125618382D01*
X103495486Y-125660293D01*
X103482036Y-125718822D01*
X103475841Y-125807880D01*
X103474345Y-125941379D01*
X103271797Y-125941379D01*
X103270457Y-125784661D01*
X103270086Y-125566455D01*
X103269977Y-124889072D01*
X103364862Y-124928819D01*
X103389949Y-124939699D01*
X103429881Y-124964268D01*
X103452739Y-125001475D01*
X103465301Y-125066541D01*
X103474345Y-125174687D01*
X103482605Y-125271788D01*
X103493523Y-125335535D01*
X103509165Y-125359323D01*
X103532736Y-125352943D01*
X103592801Y-125330525D01*
X103700145Y-125324967D01*
X103815624Y-125345728D01*
X103915257Y-125390455D01*
X103970072Y-125431856D01*
X104040452Y-125512632D01*
X104085528Y-125616195D01*
X104109496Y-125753947D01*
X104116239Y-125929106D01*
X104116553Y-125937287D01*
G36*
X104116553Y-125937287D02*
G01*
X104114219Y-126051135D01*
X104097739Y-126206320D01*
X104061883Y-126322612D01*
X104002455Y-126411411D01*
X103915257Y-126484119D01*
X103832195Y-126526150D01*
X103692709Y-126549538D01*
X103553412Y-126523965D01*
X103427510Y-126452694D01*
X103328210Y-126338991D01*
X103316219Y-126318024D01*
X103300384Y-126281291D01*
X103288638Y-126234415D01*
X103280378Y-126169355D01*
X103274998Y-126078070D01*
X103271892Y-125952519D01*
X103271797Y-125941379D01*
X103474345Y-125941379D01*
X103475035Y-126047644D01*
X103479400Y-126143762D01*
X103490192Y-126205811D01*
X103510126Y-126247502D01*
X103541916Y-126282543D01*
X103549364Y-126289279D01*
X103645060Y-126338992D01*
X103746312Y-126333905D01*
X103840614Y-126274362D01*
X103868694Y-126243514D01*
X103892196Y-126202618D01*
X103905322Y-126146080D01*
X103911030Y-126059657D01*
X103912276Y-125929106D01*
X103911661Y-125829487D01*
X103907407Y-125732251D01*
X103896682Y-125669502D01*
X103876707Y-125627382D01*
X103844704Y-125592032D01*
X103825905Y-125576114D01*
X103728492Y-125533235D01*
X103626437Y-125539985D01*
X103537825Y-125596123D01*
X103518749Y-125618382D01*
X103495486Y-125660293D01*
X103482036Y-125718822D01*
X103475841Y-125807880D01*
X103474345Y-125941379D01*
X103271797Y-125941379D01*
X103270457Y-125784661D01*
X103270086Y-125566455D01*
X103269977Y-124889072D01*
X103364862Y-124928819D01*
X103389949Y-124939699D01*
X103429881Y-124964268D01*
X103452739Y-125001475D01*
X103465301Y-125066541D01*
X103474345Y-125174687D01*
X103482605Y-125271788D01*
X103493523Y-125335535D01*
X103509165Y-125359323D01*
X103532736Y-125352943D01*
X103592801Y-125330525D01*
X103700145Y-125324967D01*
X103815624Y-125345728D01*
X103915257Y-125390455D01*
X103970072Y-125431856D01*
X104040452Y-125512632D01*
X104085528Y-125616195D01*
X104109496Y-125753947D01*
X104116239Y-125929106D01*
X104116553Y-125937287D01*
G37*
X110013452Y-125825329D02*
X110004168Y-126046639D01*
X109998926Y-126093526D01*
X109959868Y-126260409D01*
X109889290Y-126387326D01*
X109781955Y-126484602D01*
X109775888Y-126488616D01*
X109639440Y-126545706D01*
X109496973Y-126550786D01*
X109359696Y-126507311D01*
X109238819Y-126418734D01*
X109145552Y-126288509D01*
X109143986Y-126285369D01*
X109112993Y-126204501D01*
X109090292Y-126112593D01*
X109078250Y-126026311D01*
X109079237Y-125962321D01*
X109095623Y-125937287D01*
X109110179Y-125938809D01*
X109179792Y-125966496D01*
X109258697Y-126017409D01*
X109325820Y-126076343D01*
X109360087Y-126128094D01*
X109395707Y-126198291D01*
X109468711Y-126262138D01*
X109553485Y-126287632D01*
X109584558Y-126280261D01*
X109645891Y-126243154D01*
X109699315Y-126191644D01*
X109722161Y-126144913D01*
X109722154Y-126144740D01*
X109696233Y-126123280D01*
X109627127Y-126084565D01*
X109525249Y-126034037D01*
X109401011Y-125977134D01*
X109400328Y-125976833D01*
X109265355Y-125916738D01*
X109174884Y-125873440D01*
X109120039Y-125840179D01*
X109091944Y-125810194D01*
X109081724Y-125776726D01*
X109080503Y-125733015D01*
X109088996Y-125650244D01*
X109377219Y-125650244D01*
X109406970Y-125676265D01*
X109481101Y-125715256D01*
X109483274Y-125716359D01*
X109570733Y-125758009D01*
X109648974Y-125791235D01*
X109698611Y-125805291D01*
X109718521Y-125786503D01*
X109722161Y-125722124D01*
X109707035Y-125642001D01*
X109654597Y-125569189D01*
X109578677Y-125531439D01*
X109494040Y-125535251D01*
X109415447Y-125587121D01*
X109384555Y-125622965D01*
X109377219Y-125650244D01*
X109088996Y-125650244D01*
X109091251Y-125628265D01*
X109144389Y-125485949D01*
X109233342Y-125374111D01*
X109348448Y-125296676D01*
X109480045Y-125257568D01*
X109618472Y-125260711D01*
X109754065Y-125310030D01*
X109877164Y-125409447D01*
X109945366Y-125507829D01*
X109994356Y-125648261D01*
X110002322Y-125722124D01*
X110013452Y-125825329D01*
G36*
X110013452Y-125825329D02*
G01*
X110004168Y-126046639D01*
X109998926Y-126093526D01*
X109959868Y-126260409D01*
X109889290Y-126387326D01*
X109781955Y-126484602D01*
X109775888Y-126488616D01*
X109639440Y-126545706D01*
X109496973Y-126550786D01*
X109359696Y-126507311D01*
X109238819Y-126418734D01*
X109145552Y-126288509D01*
X109143986Y-126285369D01*
X109112993Y-126204501D01*
X109090292Y-126112593D01*
X109078250Y-126026311D01*
X109079237Y-125962321D01*
X109095623Y-125937287D01*
X109110179Y-125938809D01*
X109179792Y-125966496D01*
X109258697Y-126017409D01*
X109325820Y-126076343D01*
X109360087Y-126128094D01*
X109395707Y-126198291D01*
X109468711Y-126262138D01*
X109553485Y-126287632D01*
X109584558Y-126280261D01*
X109645891Y-126243154D01*
X109699315Y-126191644D01*
X109722161Y-126144913D01*
X109722154Y-126144740D01*
X109696233Y-126123280D01*
X109627127Y-126084565D01*
X109525249Y-126034037D01*
X109401011Y-125977134D01*
X109400328Y-125976833D01*
X109265355Y-125916738D01*
X109174884Y-125873440D01*
X109120039Y-125840179D01*
X109091944Y-125810194D01*
X109081724Y-125776726D01*
X109080503Y-125733015D01*
X109088996Y-125650244D01*
X109377219Y-125650244D01*
X109406970Y-125676265D01*
X109481101Y-125715256D01*
X109483274Y-125716359D01*
X109570733Y-125758009D01*
X109648974Y-125791235D01*
X109698611Y-125805291D01*
X109718521Y-125786503D01*
X109722161Y-125722124D01*
X109707035Y-125642001D01*
X109654597Y-125569189D01*
X109578677Y-125531439D01*
X109494040Y-125535251D01*
X109415447Y-125587121D01*
X109384555Y-125622965D01*
X109377219Y-125650244D01*
X109088996Y-125650244D01*
X109091251Y-125628265D01*
X109144389Y-125485949D01*
X109233342Y-125374111D01*
X109348448Y-125296676D01*
X109480045Y-125257568D01*
X109618472Y-125260711D01*
X109754065Y-125310030D01*
X109877164Y-125409447D01*
X109945366Y-125507829D01*
X109994356Y-125648261D01*
X110002322Y-125722124D01*
X110013452Y-125825329D01*
G37*
X105843995Y-125355674D02*
X105944355Y-125414191D01*
X105988505Y-125459784D01*
X106073347Y-125596072D01*
X106101931Y-125744658D01*
X106101931Y-125846882D01*
X106007963Y-125807372D01*
X105942977Y-125767504D01*
X105891763Y-125684734D01*
X105886504Y-125667669D01*
X105829903Y-125580724D01*
X105744594Y-125533758D01*
X105646641Y-125531741D01*
X105552106Y-125579644D01*
X105537993Y-125591998D01*
X105490797Y-125645683D01*
X105483003Y-125692488D01*
X105518706Y-125738446D01*
X105602003Y-125789588D01*
X105736988Y-125851948D01*
X105746118Y-125855897D01*
X105895969Y-125925772D01*
X105998316Y-125987672D01*
X106061320Y-126049476D01*
X106093138Y-126119062D01*
X106101931Y-126204308D01*
X106090409Y-126298816D01*
X106032228Y-126419785D01*
X105929875Y-126506688D01*
X105855843Y-126532778D01*
X105751367Y-126547055D01*
X105649917Y-126544006D01*
X105577472Y-126522467D01*
X105569777Y-126517104D01*
X105549341Y-126479632D01*
X105563522Y-126413591D01*
X105588161Y-126361753D01*
X105627670Y-126340172D01*
X105702602Y-126341246D01*
X105806630Y-126335055D01*
X105874605Y-126292311D01*
X105897563Y-126213189D01*
X105897542Y-126210916D01*
X105883629Y-126164986D01*
X105836303Y-126122845D01*
X105744287Y-126074272D01*
X105619151Y-126015790D01*
X105536268Y-125983975D01*
X105488420Y-125986025D01*
X105466063Y-126028051D01*
X105459649Y-126116162D01*
X105459632Y-126256469D01*
X105458917Y-126343081D01*
X105455635Y-126450041D01*
X105450300Y-126523250D01*
X105443585Y-126550391D01*
X105441790Y-126550206D01*
X105402982Y-126535498D01*
X105338709Y-126504456D01*
X105249880Y-126458521D01*
X105260436Y-126044628D01*
X105261171Y-126017179D01*
X105269555Y-125824517D01*
X105284366Y-125679309D01*
X105308629Y-125571887D01*
X105345364Y-125492584D01*
X105397597Y-125431730D01*
X105468348Y-125379658D01*
X105469657Y-125378842D01*
X105584056Y-125336360D01*
X105716365Y-125329184D01*
X105843995Y-125355674D01*
G36*
X105843995Y-125355674D02*
G01*
X105944355Y-125414191D01*
X105988505Y-125459784D01*
X106073347Y-125596072D01*
X106101931Y-125744658D01*
X106101931Y-125846882D01*
X106007963Y-125807372D01*
X105942977Y-125767504D01*
X105891763Y-125684734D01*
X105886504Y-125667669D01*
X105829903Y-125580724D01*
X105744594Y-125533758D01*
X105646641Y-125531741D01*
X105552106Y-125579644D01*
X105537993Y-125591998D01*
X105490797Y-125645683D01*
X105483003Y-125692488D01*
X105518706Y-125738446D01*
X105602003Y-125789588D01*
X105736988Y-125851948D01*
X105746118Y-125855897D01*
X105895969Y-125925772D01*
X105998316Y-125987672D01*
X106061320Y-126049476D01*
X106093138Y-126119062D01*
X106101931Y-126204308D01*
X106090409Y-126298816D01*
X106032228Y-126419785D01*
X105929875Y-126506688D01*
X105855843Y-126532778D01*
X105751367Y-126547055D01*
X105649917Y-126544006D01*
X105577472Y-126522467D01*
X105569777Y-126517104D01*
X105549341Y-126479632D01*
X105563522Y-126413591D01*
X105588161Y-126361753D01*
X105627670Y-126340172D01*
X105702602Y-126341246D01*
X105806630Y-126335055D01*
X105874605Y-126292311D01*
X105897563Y-126213189D01*
X105897542Y-126210916D01*
X105883629Y-126164986D01*
X105836303Y-126122845D01*
X105744287Y-126074272D01*
X105619151Y-126015790D01*
X105536268Y-125983975D01*
X105488420Y-125986025D01*
X105466063Y-126028051D01*
X105459649Y-126116162D01*
X105459632Y-126256469D01*
X105458917Y-126343081D01*
X105455635Y-126450041D01*
X105450300Y-126523250D01*
X105443585Y-126550391D01*
X105441790Y-126550206D01*
X105402982Y-126535498D01*
X105338709Y-126504456D01*
X105249880Y-126458521D01*
X105260436Y-126044628D01*
X105261171Y-126017179D01*
X105269555Y-125824517D01*
X105284366Y-125679309D01*
X105308629Y-125571887D01*
X105345364Y-125492584D01*
X105397597Y-125431730D01*
X105468348Y-125379658D01*
X105469657Y-125378842D01*
X105584056Y-125336360D01*
X105716365Y-125329184D01*
X105843995Y-125355674D01*
G37*
X101575628Y-125326810D02*
X101638194Y-125342702D01*
X101696446Y-125382322D01*
X101771418Y-125456076D01*
X101819633Y-125508163D01*
X101869858Y-125575786D01*
X101892510Y-125639168D01*
X101897793Y-125719584D01*
X101897793Y-125851201D01*
X101808035Y-125804785D01*
X101736904Y-125748225D01*
X101688183Y-125672040D01*
X101679814Y-125651326D01*
X101616056Y-125571041D01*
X101527470Y-125530784D01*
X101430873Y-125534702D01*
X101343080Y-125586943D01*
X101305936Y-125629370D01*
X101284300Y-125683647D01*
X101307461Y-125731954D01*
X101379479Y-125780545D01*
X101504410Y-125835677D01*
X101523368Y-125843292D01*
X101637105Y-125893125D01*
X101734706Y-125942265D01*
X101796803Y-125981080D01*
X101858999Y-126050411D01*
X101900346Y-126161051D01*
X101895957Y-126279782D01*
X101847037Y-126392148D01*
X101754797Y-126483690D01*
X101680110Y-126522658D01*
X101535832Y-126549944D01*
X101455656Y-126546263D01*
X101381435Y-126526360D01*
X101352960Y-126484598D01*
X101363608Y-126415820D01*
X101366705Y-126406726D01*
X101391268Y-126358498D01*
X101432165Y-126340245D01*
X101510079Y-126341466D01*
X101565091Y-126343126D01*
X101629459Y-126328881D01*
X101673561Y-126286292D01*
X101698680Y-126233857D01*
X101701481Y-126178929D01*
X101701352Y-126178608D01*
X101668785Y-126148928D01*
X101599083Y-126105735D01*
X101508898Y-126057461D01*
X101414883Y-126012539D01*
X101333689Y-125979402D01*
X101281968Y-125966483D01*
X101274274Y-125979134D01*
X101264588Y-126038668D01*
X101257954Y-126135887D01*
X101255494Y-126258437D01*
X101254922Y-126343263D01*
X101252225Y-126450094D01*
X101247821Y-126523257D01*
X101242270Y-126550391D01*
X101213254Y-126541272D01*
X101154684Y-126516509D01*
X101080322Y-126482627D01*
X101080322Y-126047933D01*
X101080797Y-125936508D01*
X101085293Y-125767301D01*
X101096747Y-125641769D01*
X101117828Y-125550363D01*
X101151206Y-125483532D01*
X101199550Y-125431726D01*
X101265531Y-125385393D01*
X101349594Y-125347156D01*
X101504807Y-125324184D01*
X101575628Y-125326810D01*
G36*
X101575628Y-125326810D02*
G01*
X101638194Y-125342702D01*
X101696446Y-125382322D01*
X101771418Y-125456076D01*
X101819633Y-125508163D01*
X101869858Y-125575786D01*
X101892510Y-125639168D01*
X101897793Y-125719584D01*
X101897793Y-125851201D01*
X101808035Y-125804785D01*
X101736904Y-125748225D01*
X101688183Y-125672040D01*
X101679814Y-125651326D01*
X101616056Y-125571041D01*
X101527470Y-125530784D01*
X101430873Y-125534702D01*
X101343080Y-125586943D01*
X101305936Y-125629370D01*
X101284300Y-125683647D01*
X101307461Y-125731954D01*
X101379479Y-125780545D01*
X101504410Y-125835677D01*
X101523368Y-125843292D01*
X101637105Y-125893125D01*
X101734706Y-125942265D01*
X101796803Y-125981080D01*
X101858999Y-126050411D01*
X101900346Y-126161051D01*
X101895957Y-126279782D01*
X101847037Y-126392148D01*
X101754797Y-126483690D01*
X101680110Y-126522658D01*
X101535832Y-126549944D01*
X101455656Y-126546263D01*
X101381435Y-126526360D01*
X101352960Y-126484598D01*
X101363608Y-126415820D01*
X101366705Y-126406726D01*
X101391268Y-126358498D01*
X101432165Y-126340245D01*
X101510079Y-126341466D01*
X101565091Y-126343126D01*
X101629459Y-126328881D01*
X101673561Y-126286292D01*
X101698680Y-126233857D01*
X101701481Y-126178929D01*
X101701352Y-126178608D01*
X101668785Y-126148928D01*
X101599083Y-126105735D01*
X101508898Y-126057461D01*
X101414883Y-126012539D01*
X101333689Y-125979402D01*
X101281968Y-125966483D01*
X101274274Y-125979134D01*
X101264588Y-126038668D01*
X101257954Y-126135887D01*
X101255494Y-126258437D01*
X101254922Y-126343263D01*
X101252225Y-126450094D01*
X101247821Y-126523257D01*
X101242270Y-126550391D01*
X101213254Y-126541272D01*
X101154684Y-126516509D01*
X101080322Y-126482627D01*
X101080322Y-126047933D01*
X101080797Y-125936508D01*
X101085293Y-125767301D01*
X101096747Y-125641769D01*
X101117828Y-125550363D01*
X101151206Y-125483532D01*
X101199550Y-125431726D01*
X101265531Y-125385393D01*
X101349594Y-125347156D01*
X101504807Y-125324184D01*
X101575628Y-125326810D01*
G37*
X111114778Y-126041502D02*
X111117668Y-126265736D01*
X111118471Y-126330785D01*
X111121040Y-126548260D01*
X111121556Y-126714672D01*
X111118437Y-126835846D01*
X111110100Y-126917607D01*
X111094962Y-126965781D01*
X111071441Y-126986194D01*
X111037956Y-126984672D01*
X110992923Y-126967039D01*
X110934761Y-126939121D01*
X110922332Y-126933164D01*
X110870578Y-126904006D01*
X110843550Y-126869314D01*
X110833207Y-126811470D01*
X110831509Y-126712857D01*
X110831433Y-126535793D01*
X110649038Y-126535793D01*
X110536840Y-126530880D01*
X110448620Y-126510953D01*
X110375358Y-126470678D01*
X110369896Y-126466741D01*
X110295558Y-126400243D01*
X110243823Y-126319908D01*
X110211196Y-126214758D01*
X110194182Y-126073815D01*
X110190030Y-125914588D01*
X110481241Y-125914588D01*
X110481291Y-125941276D01*
X110484064Y-126061738D01*
X110492967Y-126140484D01*
X110510617Y-126191618D01*
X110539632Y-126229241D01*
X110541440Y-126231038D01*
X110612753Y-126279720D01*
X110681865Y-126274921D01*
X110759925Y-126215971D01*
X110779019Y-126195823D01*
X110807142Y-126154515D01*
X110823000Y-126100787D01*
X110830009Y-126019326D01*
X110831586Y-125894821D01*
X110830220Y-125819445D01*
X110815402Y-125682362D01*
X110781579Y-125592548D01*
X110725389Y-125543460D01*
X110643472Y-125528552D01*
X110608956Y-125531729D01*
X110549235Y-125563254D01*
X110509752Y-125633505D01*
X110487942Y-125748583D01*
X110481241Y-125914588D01*
X110190030Y-125914588D01*
X110189287Y-125886101D01*
X110190371Y-125749122D01*
X110195307Y-125645364D01*
X110206272Y-125573412D01*
X110225438Y-125519500D01*
X110254977Y-125469864D01*
X110282092Y-125431931D01*
X110380550Y-125329522D01*
X110492100Y-125273903D01*
X110632246Y-125256297D01*
X110792635Y-125273847D01*
X110931288Y-125336797D01*
X111040951Y-125447824D01*
X111049218Y-125459578D01*
X111068499Y-125490813D01*
X111083269Y-125526507D01*
X111094254Y-125574364D01*
X111102174Y-125642087D01*
X111107753Y-125737382D01*
X111111713Y-125867952D01*
X111112188Y-125894821D01*
X111114778Y-126041502D01*
G36*
X111114778Y-126041502D02*
G01*
X111117668Y-126265736D01*
X111118471Y-126330785D01*
X111121040Y-126548260D01*
X111121556Y-126714672D01*
X111118437Y-126835846D01*
X111110100Y-126917607D01*
X111094962Y-126965781D01*
X111071441Y-126986194D01*
X111037956Y-126984672D01*
X110992923Y-126967039D01*
X110934761Y-126939121D01*
X110922332Y-126933164D01*
X110870578Y-126904006D01*
X110843550Y-126869314D01*
X110833207Y-126811470D01*
X110831509Y-126712857D01*
X110831433Y-126535793D01*
X110649038Y-126535793D01*
X110536840Y-126530880D01*
X110448620Y-126510953D01*
X110375358Y-126470678D01*
X110369896Y-126466741D01*
X110295558Y-126400243D01*
X110243823Y-126319908D01*
X110211196Y-126214758D01*
X110194182Y-126073815D01*
X110190030Y-125914588D01*
X110481241Y-125914588D01*
X110481291Y-125941276D01*
X110484064Y-126061738D01*
X110492967Y-126140484D01*
X110510617Y-126191618D01*
X110539632Y-126229241D01*
X110541440Y-126231038D01*
X110612753Y-126279720D01*
X110681865Y-126274921D01*
X110759925Y-126215971D01*
X110779019Y-126195823D01*
X110807142Y-126154515D01*
X110823000Y-126100787D01*
X110830009Y-126019326D01*
X110831586Y-125894821D01*
X110830220Y-125819445D01*
X110815402Y-125682362D01*
X110781579Y-125592548D01*
X110725389Y-125543460D01*
X110643472Y-125528552D01*
X110608956Y-125531729D01*
X110549235Y-125563254D01*
X110509752Y-125633505D01*
X110487942Y-125748583D01*
X110481241Y-125914588D01*
X110190030Y-125914588D01*
X110189287Y-125886101D01*
X110190371Y-125749122D01*
X110195307Y-125645364D01*
X110206272Y-125573412D01*
X110225438Y-125519500D01*
X110254977Y-125469864D01*
X110282092Y-125431931D01*
X110380550Y-125329522D01*
X110492100Y-125273903D01*
X110632246Y-125256297D01*
X110792635Y-125273847D01*
X110931288Y-125336797D01*
X111040951Y-125447824D01*
X111049218Y-125459578D01*
X111068499Y-125490813D01*
X111083269Y-125526507D01*
X111094254Y-125574364D01*
X111102174Y-125642087D01*
X111107753Y-125737382D01*
X111111713Y-125867952D01*
X111112188Y-125894821D01*
X111114778Y-126041502D01*
G37*
X105893175Y-115865045D02*
X106045895Y-115866039D01*
X106155792Y-115868593D01*
X106230235Y-115873445D01*
X106276594Y-115881331D01*
X106302239Y-115892988D01*
X106314539Y-115909153D01*
X106320865Y-115930563D01*
X106321047Y-115931332D01*
X106331441Y-115981663D01*
X106350339Y-116078888D01*
X106375802Y-116212810D01*
X106405890Y-116373235D01*
X106438664Y-116549967D01*
X106441337Y-116564428D01*
X106474010Y-116735959D01*
X106504413Y-116886625D01*
X106530568Y-117007267D01*
X106550496Y-117088729D01*
X106562220Y-117121852D01*
X106562282Y-117121905D01*
X106599229Y-117140229D01*
X106675057Y-117170677D01*
X106773425Y-117206685D01*
X106778965Y-117208640D01*
X106904724Y-117256170D01*
X107051011Y-117315783D01*
X107187293Y-117375056D01*
X107411390Y-117476765D01*
X107907618Y-117137897D01*
X107942570Y-117114063D01*
X108092280Y-117012755D01*
X108225867Y-116923575D01*
X108335343Y-116851773D01*
X108412718Y-116802603D01*
X108450004Y-116781317D01*
X108475552Y-116786196D01*
X108533555Y-116824002D01*
X108623195Y-116898870D01*
X108746957Y-117012903D01*
X108907328Y-117168205D01*
X108921679Y-117182341D01*
X109048933Y-117308999D01*
X109161969Y-117423745D01*
X109253867Y-117519391D01*
X109317707Y-117588746D01*
X109346570Y-117624620D01*
X109346664Y-117624794D01*
X109350331Y-117652106D01*
X109336808Y-117696408D01*
X109302684Y-117763761D01*
X109244548Y-117860226D01*
X109158988Y-117991863D01*
X109042594Y-118164734D01*
X109022759Y-118193912D01*
X108922445Y-118341726D01*
X108833923Y-118472577D01*
X108762465Y-118578643D01*
X108713343Y-118652102D01*
X108691831Y-118685130D01*
X108690208Y-118692126D01*
X108700387Y-118744326D01*
X108730879Y-118829561D01*
X108776712Y-118933291D01*
X108839000Y-119068951D01*
X108908548Y-119229921D01*
X108967609Y-119375621D01*
X108982252Y-119413333D01*
X109020600Y-119509622D01*
X109048770Y-119576704D01*
X109061497Y-119601885D01*
X109075545Y-119603767D01*
X109138681Y-119614651D01*
X109242019Y-119633449D01*
X109374809Y-119658115D01*
X109526297Y-119686604D01*
X109685732Y-119716873D01*
X109842361Y-119746875D01*
X109985433Y-119774566D01*
X110104195Y-119797900D01*
X110187896Y-119814833D01*
X110225782Y-119823320D01*
X110232063Y-119825713D01*
X110247373Y-119838619D01*
X110258763Y-119866096D01*
X110266803Y-119915446D01*
X110272064Y-119993973D01*
X110275116Y-120108980D01*
X110276529Y-120267770D01*
X110276873Y-120477645D01*
X110276873Y-121115906D01*
X110123598Y-121146160D01*
X110105057Y-121149785D01*
X110006596Y-121168569D01*
X109870448Y-121194093D01*
X109712087Y-121223468D01*
X109546988Y-121253806D01*
X109481973Y-121266009D01*
X109336697Y-121295697D01*
X109215626Y-121323770D01*
X109129886Y-121347536D01*
X109090601Y-121364301D01*
X109072799Y-121391694D01*
X109040389Y-121464174D01*
X109007234Y-121557977D01*
X108995564Y-121593103D01*
X108952604Y-121708409D01*
X108897192Y-121844876D01*
X108838353Y-121979954D01*
X108806884Y-122050509D01*
X108762051Y-122155895D01*
X108731240Y-122234818D01*
X108719785Y-122274053D01*
X108720422Y-122277014D01*
X108742150Y-122318639D01*
X108791146Y-122398969D01*
X108862438Y-122510220D01*
X108951054Y-122644605D01*
X109052023Y-122794340D01*
X109384261Y-123281931D01*
X108947771Y-123719149D01*
X108905555Y-123761221D01*
X108776470Y-123887153D01*
X108661107Y-123995754D01*
X108566224Y-124080903D01*
X108498582Y-124136482D01*
X108464938Y-124156368D01*
X108428402Y-124141238D01*
X108351890Y-124097801D01*
X108244196Y-124031270D01*
X108113767Y-123946867D01*
X107969052Y-123849816D01*
X107826910Y-123753964D01*
X107698678Y-123669557D01*
X107594054Y-123602850D01*
X107521171Y-123559024D01*
X107488158Y-123543264D01*
X107486223Y-123543408D01*
X107442369Y-123558945D01*
X107364598Y-123595121D01*
X107268392Y-123644785D01*
X107267381Y-123645329D01*
X107139605Y-123709326D01*
X107052051Y-123740591D01*
X106997726Y-123740677D01*
X106969641Y-123711138D01*
X106957752Y-123682061D01*
X106925668Y-123604188D01*
X106876247Y-123484475D01*
X106812118Y-123329286D01*
X106735911Y-123144984D01*
X106650255Y-122937933D01*
X106557781Y-122714496D01*
X106473962Y-122511226D01*
X106388678Y-122302649D01*
X106313222Y-122116263D01*
X106250126Y-121958407D01*
X106201923Y-121835419D01*
X106171144Y-121753639D01*
X106160322Y-121719406D01*
X106180991Y-121688015D01*
X106238409Y-121635602D01*
X106319688Y-121574704D01*
X106514820Y-121415387D01*
X106689445Y-121211807D01*
X106817235Y-120987808D01*
X106897402Y-120750003D01*
X106929160Y-120505007D01*
X106911722Y-120259433D01*
X106844301Y-120019895D01*
X106726111Y-119793007D01*
X106556364Y-119585383D01*
X106467856Y-119504527D01*
X106255804Y-119361559D01*
X106028905Y-119268352D01*
X105793791Y-119222687D01*
X105557094Y-119222344D01*
X105325446Y-119265105D01*
X105105478Y-119348750D01*
X104903822Y-119471061D01*
X104727111Y-119629817D01*
X104581977Y-119822801D01*
X104475050Y-120047793D01*
X104412964Y-120302575D01*
X104401569Y-120425377D01*
X104417246Y-120691434D01*
X104487846Y-120943856D01*
X104611282Y-121178182D01*
X104785466Y-121389952D01*
X105008311Y-121574704D01*
X105086561Y-121633123D01*
X105145244Y-121686110D01*
X105167678Y-121719356D01*
X105158732Y-121748339D01*
X105129703Y-121825996D01*
X105083026Y-121945451D01*
X105021231Y-122100362D01*
X104946850Y-122284392D01*
X104862412Y-122491200D01*
X104770449Y-122714446D01*
X104686771Y-122916742D01*
X104600366Y-123125686D01*
X104523138Y-123312498D01*
X104457716Y-123470814D01*
X104406731Y-123594269D01*
X104372812Y-123676498D01*
X104358590Y-123711138D01*
X104358425Y-123711548D01*
X104329972Y-123740798D01*
X104275382Y-123740463D01*
X104187609Y-123708980D01*
X104059608Y-123644785D01*
X104049532Y-123639380D01*
X103954481Y-123590750D01*
X103879424Y-123556328D01*
X103839842Y-123543264D01*
X103807400Y-123558702D01*
X103734895Y-123602258D01*
X103630565Y-123668751D01*
X103502539Y-123752998D01*
X103358948Y-123849816D01*
X103217468Y-123944734D01*
X103086611Y-124029490D01*
X102978292Y-124096496D01*
X102900960Y-124140529D01*
X102863062Y-124156368D01*
X102856607Y-124154357D01*
X102811609Y-124122658D01*
X102734727Y-124057181D01*
X102632721Y-123964048D01*
X102512351Y-123849381D01*
X102380379Y-123719300D01*
X101944039Y-123282232D01*
X102623733Y-122282440D01*
X102520402Y-122058886D01*
X102520096Y-122058225D01*
X102458046Y-121915714D01*
X102394640Y-121757018D01*
X102343558Y-121616368D01*
X102335827Y-121593683D01*
X102296852Y-121488370D01*
X102261707Y-121406534D01*
X102237195Y-121364301D01*
X102227212Y-121358337D01*
X102167286Y-121338329D01*
X102065532Y-121312442D01*
X101933068Y-121283370D01*
X101781011Y-121253806D01*
X101735466Y-121245467D01*
X101570685Y-121215107D01*
X101416930Y-121186509D01*
X101289678Y-121162564D01*
X101204402Y-121146160D01*
X101051126Y-121115906D01*
X101051126Y-120477645D01*
X101051160Y-120399165D01*
X101051808Y-120207703D01*
X101053720Y-120064812D01*
X101057469Y-119963189D01*
X101063622Y-119895531D01*
X101072751Y-119854536D01*
X101085427Y-119832900D01*
X101102218Y-119823320D01*
X101118474Y-119819439D01*
X101184748Y-119805710D01*
X101290479Y-119784745D01*
X101424915Y-119758588D01*
X101577302Y-119729283D01*
X101736890Y-119698877D01*
X101892925Y-119669413D01*
X102034657Y-119642937D01*
X102151331Y-119621494D01*
X102232197Y-119607128D01*
X102266503Y-119601885D01*
X102268822Y-119598720D01*
X102287474Y-119557642D01*
X102319753Y-119479044D01*
X102360391Y-119375621D01*
X102416788Y-119236273D01*
X102486214Y-119075226D01*
X102551288Y-118933291D01*
X102566202Y-118901432D01*
X102608047Y-118801669D01*
X102633118Y-118724721D01*
X102636426Y-118685130D01*
X102634720Y-118682325D01*
X102607631Y-118641005D01*
X102553927Y-118560740D01*
X102478877Y-118449350D01*
X102387746Y-118314655D01*
X102285800Y-118164476D01*
X102170930Y-117993851D01*
X102084761Y-117861311D01*
X102026131Y-117764112D01*
X101991650Y-117696234D01*
X101977926Y-117651656D01*
X101981568Y-117624361D01*
X101982794Y-117622313D01*
X102015747Y-117582536D01*
X102082927Y-117510052D01*
X102177419Y-117412046D01*
X102292306Y-117295702D01*
X102420672Y-117168205D01*
X102553831Y-117038821D01*
X102684269Y-116917209D01*
X102780119Y-116835156D01*
X102843866Y-116790560D01*
X102877996Y-116781317D01*
X102882456Y-116783393D01*
X102929421Y-116811385D01*
X103014685Y-116866084D01*
X103130259Y-116942237D01*
X103268154Y-117034592D01*
X103420381Y-117137897D01*
X103916610Y-117476765D01*
X104140707Y-117375056D01*
X104147219Y-117372109D01*
X104284804Y-117312504D01*
X104430767Y-117253222D01*
X104554575Y-117206685D01*
X104555122Y-117206493D01*
X104653414Y-117170497D01*
X104729081Y-117140095D01*
X104765780Y-117121852D01*
X104766374Y-117121190D01*
X104778833Y-117083831D01*
X104799336Y-116998871D01*
X104825907Y-116875469D01*
X104856567Y-116722782D01*
X104889336Y-116549967D01*
X104890478Y-116543774D01*
X104923193Y-116367431D01*
X104953155Y-116207743D01*
X104978425Y-116074905D01*
X104997065Y-115979113D01*
X105007135Y-115930563D01*
X105007779Y-115927873D01*
X105014408Y-115907088D01*
X105027841Y-115891466D01*
X105055446Y-115880270D01*
X105104593Y-115872762D01*
X105182653Y-115868205D01*
X105296994Y-115865863D01*
X105454986Y-115864998D01*
X105664000Y-115864874D01*
X105690262Y-115864874D01*
X105893175Y-115865045D01*
G36*
X105893175Y-115865045D02*
G01*
X106045895Y-115866039D01*
X106155792Y-115868593D01*
X106230235Y-115873445D01*
X106276594Y-115881331D01*
X106302239Y-115892988D01*
X106314539Y-115909153D01*
X106320865Y-115930563D01*
X106321047Y-115931332D01*
X106331441Y-115981663D01*
X106350339Y-116078888D01*
X106375802Y-116212810D01*
X106405890Y-116373235D01*
X106438664Y-116549967D01*
X106441337Y-116564428D01*
X106474010Y-116735959D01*
X106504413Y-116886625D01*
X106530568Y-117007267D01*
X106550496Y-117088729D01*
X106562220Y-117121852D01*
X106562282Y-117121905D01*
X106599229Y-117140229D01*
X106675057Y-117170677D01*
X106773425Y-117206685D01*
X106778965Y-117208640D01*
X106904724Y-117256170D01*
X107051011Y-117315783D01*
X107187293Y-117375056D01*
X107411390Y-117476765D01*
X107907618Y-117137897D01*
X107942570Y-117114063D01*
X108092280Y-117012755D01*
X108225867Y-116923575D01*
X108335343Y-116851773D01*
X108412718Y-116802603D01*
X108450004Y-116781317D01*
X108475552Y-116786196D01*
X108533555Y-116824002D01*
X108623195Y-116898870D01*
X108746957Y-117012903D01*
X108907328Y-117168205D01*
X108921679Y-117182341D01*
X109048933Y-117308999D01*
X109161969Y-117423745D01*
X109253867Y-117519391D01*
X109317707Y-117588746D01*
X109346570Y-117624620D01*
X109346664Y-117624794D01*
X109350331Y-117652106D01*
X109336808Y-117696408D01*
X109302684Y-117763761D01*
X109244548Y-117860226D01*
X109158988Y-117991863D01*
X109042594Y-118164734D01*
X109022759Y-118193912D01*
X108922445Y-118341726D01*
X108833923Y-118472577D01*
X108762465Y-118578643D01*
X108713343Y-118652102D01*
X108691831Y-118685130D01*
X108690208Y-118692126D01*
X108700387Y-118744326D01*
X108730879Y-118829561D01*
X108776712Y-118933291D01*
X108839000Y-119068951D01*
X108908548Y-119229921D01*
X108967609Y-119375621D01*
X108982252Y-119413333D01*
X109020600Y-119509622D01*
X109048770Y-119576704D01*
X109061497Y-119601885D01*
X109075545Y-119603767D01*
X109138681Y-119614651D01*
X109242019Y-119633449D01*
X109374809Y-119658115D01*
X109526297Y-119686604D01*
X109685732Y-119716873D01*
X109842361Y-119746875D01*
X109985433Y-119774566D01*
X110104195Y-119797900D01*
X110187896Y-119814833D01*
X110225782Y-119823320D01*
X110232063Y-119825713D01*
X110247373Y-119838619D01*
X110258763Y-119866096D01*
X110266803Y-119915446D01*
X110272064Y-119993973D01*
X110275116Y-120108980D01*
X110276529Y-120267770D01*
X110276873Y-120477645D01*
X110276873Y-121115906D01*
X110123598Y-121146160D01*
X110105057Y-121149785D01*
X110006596Y-121168569D01*
X109870448Y-121194093D01*
X109712087Y-121223468D01*
X109546988Y-121253806D01*
X109481973Y-121266009D01*
X109336697Y-121295697D01*
X109215626Y-121323770D01*
X109129886Y-121347536D01*
X109090601Y-121364301D01*
X109072799Y-121391694D01*
X109040389Y-121464174D01*
X109007234Y-121557977D01*
X108995564Y-121593103D01*
X108952604Y-121708409D01*
X108897192Y-121844876D01*
X108838353Y-121979954D01*
X108806884Y-122050509D01*
X108762051Y-122155895D01*
X108731240Y-122234818D01*
X108719785Y-122274053D01*
X108720422Y-122277014D01*
X108742150Y-122318639D01*
X108791146Y-122398969D01*
X108862438Y-122510220D01*
X108951054Y-122644605D01*
X109052023Y-122794340D01*
X109384261Y-123281931D01*
X108947771Y-123719149D01*
X108905555Y-123761221D01*
X108776470Y-123887153D01*
X108661107Y-123995754D01*
X108566224Y-124080903D01*
X108498582Y-124136482D01*
X108464938Y-124156368D01*
X108428402Y-124141238D01*
X108351890Y-124097801D01*
X108244196Y-124031270D01*
X108113767Y-123946867D01*
X107969052Y-123849816D01*
X107826910Y-123753964D01*
X107698678Y-123669557D01*
X107594054Y-123602850D01*
X107521171Y-123559024D01*
X107488158Y-123543264D01*
X107486223Y-123543408D01*
X107442369Y-123558945D01*
X107364598Y-123595121D01*
X107268392Y-123644785D01*
X107267381Y-123645329D01*
X107139605Y-123709326D01*
X107052051Y-123740591D01*
X106997726Y-123740677D01*
X106969641Y-123711138D01*
X106957752Y-123682061D01*
X106925668Y-123604188D01*
X106876247Y-123484475D01*
X106812118Y-123329286D01*
X106735911Y-123144984D01*
X106650255Y-122937933D01*
X106557781Y-122714496D01*
X106473962Y-122511226D01*
X106388678Y-122302649D01*
X106313222Y-122116263D01*
X106250126Y-121958407D01*
X106201923Y-121835419D01*
X106171144Y-121753639D01*
X106160322Y-121719406D01*
X106180991Y-121688015D01*
X106238409Y-121635602D01*
X106319688Y-121574704D01*
X106514820Y-121415387D01*
X106689445Y-121211807D01*
X106817235Y-120987808D01*
X106897402Y-120750003D01*
X106929160Y-120505007D01*
X106911722Y-120259433D01*
X106844301Y-120019895D01*
X106726111Y-119793007D01*
X106556364Y-119585383D01*
X106467856Y-119504527D01*
X106255804Y-119361559D01*
X106028905Y-119268352D01*
X105793791Y-119222687D01*
X105557094Y-119222344D01*
X105325446Y-119265105D01*
X105105478Y-119348750D01*
X104903822Y-119471061D01*
X104727111Y-119629817D01*
X104581977Y-119822801D01*
X104475050Y-120047793D01*
X104412964Y-120302575D01*
X104401569Y-120425377D01*
X104417246Y-120691434D01*
X104487846Y-120943856D01*
X104611282Y-121178182D01*
X104785466Y-121389952D01*
X105008311Y-121574704D01*
X105086561Y-121633123D01*
X105145244Y-121686110D01*
X105167678Y-121719356D01*
X105158732Y-121748339D01*
X105129703Y-121825996D01*
X105083026Y-121945451D01*
X105021231Y-122100362D01*
X104946850Y-122284392D01*
X104862412Y-122491200D01*
X104770449Y-122714446D01*
X104686771Y-122916742D01*
X104600366Y-123125686D01*
X104523138Y-123312498D01*
X104457716Y-123470814D01*
X104406731Y-123594269D01*
X104372812Y-123676498D01*
X104358590Y-123711138D01*
X104358425Y-123711548D01*
X104329972Y-123740798D01*
X104275382Y-123740463D01*
X104187609Y-123708980D01*
X104059608Y-123644785D01*
X104049532Y-123639380D01*
X103954481Y-123590750D01*
X103879424Y-123556328D01*
X103839842Y-123543264D01*
X103807400Y-123558702D01*
X103734895Y-123602258D01*
X103630565Y-123668751D01*
X103502539Y-123752998D01*
X103358948Y-123849816D01*
X103217468Y-123944734D01*
X103086611Y-124029490D01*
X102978292Y-124096496D01*
X102900960Y-124140529D01*
X102863062Y-124156368D01*
X102856607Y-124154357D01*
X102811609Y-124122658D01*
X102734727Y-124057181D01*
X102632721Y-123964048D01*
X102512351Y-123849381D01*
X102380379Y-123719300D01*
X101944039Y-123282232D01*
X102623733Y-122282440D01*
X102520402Y-122058886D01*
X102520096Y-122058225D01*
X102458046Y-121915714D01*
X102394640Y-121757018D01*
X102343558Y-121616368D01*
X102335827Y-121593683D01*
X102296852Y-121488370D01*
X102261707Y-121406534D01*
X102237195Y-121364301D01*
X102227212Y-121358337D01*
X102167286Y-121338329D01*
X102065532Y-121312442D01*
X101933068Y-121283370D01*
X101781011Y-121253806D01*
X101735466Y-121245467D01*
X101570685Y-121215107D01*
X101416930Y-121186509D01*
X101289678Y-121162564D01*
X101204402Y-121146160D01*
X101051126Y-121115906D01*
X101051126Y-120477645D01*
X101051160Y-120399165D01*
X101051808Y-120207703D01*
X101053720Y-120064812D01*
X101057469Y-119963189D01*
X101063622Y-119895531D01*
X101072751Y-119854536D01*
X101085427Y-119832900D01*
X101102218Y-119823320D01*
X101118474Y-119819439D01*
X101184748Y-119805710D01*
X101290479Y-119784745D01*
X101424915Y-119758588D01*
X101577302Y-119729283D01*
X101736890Y-119698877D01*
X101892925Y-119669413D01*
X102034657Y-119642937D01*
X102151331Y-119621494D01*
X102232197Y-119607128D01*
X102266503Y-119601885D01*
X102268822Y-119598720D01*
X102287474Y-119557642D01*
X102319753Y-119479044D01*
X102360391Y-119375621D01*
X102416788Y-119236273D01*
X102486214Y-119075226D01*
X102551288Y-118933291D01*
X102566202Y-118901432D01*
X102608047Y-118801669D01*
X102633118Y-118724721D01*
X102636426Y-118685130D01*
X102634720Y-118682325D01*
X102607631Y-118641005D01*
X102553927Y-118560740D01*
X102478877Y-118449350D01*
X102387746Y-118314655D01*
X102285800Y-118164476D01*
X102170930Y-117993851D01*
X102084761Y-117861311D01*
X102026131Y-117764112D01*
X101991650Y-117696234D01*
X101977926Y-117651656D01*
X101981568Y-117624361D01*
X101982794Y-117622313D01*
X102015747Y-117582536D01*
X102082927Y-117510052D01*
X102177419Y-117412046D01*
X102292306Y-117295702D01*
X102420672Y-117168205D01*
X102553831Y-117038821D01*
X102684269Y-116917209D01*
X102780119Y-116835156D01*
X102843866Y-116790560D01*
X102877996Y-116781317D01*
X102882456Y-116783393D01*
X102929421Y-116811385D01*
X103014685Y-116866084D01*
X103130259Y-116942237D01*
X103268154Y-117034592D01*
X103420381Y-117137897D01*
X103916610Y-117476765D01*
X104140707Y-117375056D01*
X104147219Y-117372109D01*
X104284804Y-117312504D01*
X104430767Y-117253222D01*
X104554575Y-117206685D01*
X104555122Y-117206493D01*
X104653414Y-117170497D01*
X104729081Y-117140095D01*
X104765780Y-117121852D01*
X104766374Y-117121190D01*
X104778833Y-117083831D01*
X104799336Y-116998871D01*
X104825907Y-116875469D01*
X104856567Y-116722782D01*
X104889336Y-116549967D01*
X104890478Y-116543774D01*
X104923193Y-116367431D01*
X104953155Y-116207743D01*
X104978425Y-116074905D01*
X104997065Y-115979113D01*
X105007135Y-115930563D01*
X105007779Y-115927873D01*
X105014408Y-115907088D01*
X105027841Y-115891466D01*
X105055446Y-115880270D01*
X105104593Y-115872762D01*
X105182653Y-115868205D01*
X105296994Y-115865863D01*
X105454986Y-115864998D01*
X105664000Y-115864874D01*
X105690262Y-115864874D01*
X105893175Y-115865045D01*
G37*
%TD*%
M02*
