%TF.GenerationSoftware,KiCad,Pcbnew,9.0.5*%
%TF.CreationDate,2026-03-27T15:19:33-04:00*%
%TF.ProjectId,ROMRAMCart_v1_0,524f4d52-414d-4436-9172-745f76315f30,rev?*%
%TF.SameCoordinates,Original*%
%TF.FileFunction,Soldermask,Top*%
%TF.FilePolarity,Negative*%
%FSLAX46Y46*%
G04 Gerber Fmt 4.6, Leading zero omitted, Abs format (unit mm)*
G04 Created by KiCad (PCBNEW 9.0.5) date 2026-03-27 15:19:33*
%MOMM*%
%LPD*%
G01*
G04 APERTURE LIST*
G04 Aperture macros list*
%AMRoundRect*
0 Rectangle with rounded corners*
0 $1 Rounding radius*
0 $2 $3 $4 $5 $6 $7 $8 $9 X,Y pos of 4 corners*
0 Add a 4 corners polygon primitive as box body*
4,1,4,$2,$3,$4,$5,$6,$7,$8,$9,$2,$3,0*
0 Add four circle primitives for the rounded corners*
1,1,$1+$1,$2,$3*
1,1,$1+$1,$4,$5*
1,1,$1+$1,$6,$7*
1,1,$1+$1,$8,$9*
0 Add four rect primitives between the rounded corners*
20,1,$1+$1,$2,$3,$4,$5,0*
20,1,$1+$1,$4,$5,$6,$7,0*
20,1,$1+$1,$6,$7,$8,$9,0*
20,1,$1+$1,$8,$9,$2,$3,0*%
G04 Aperture macros list end*
%ADD10C,0.100000*%
%ADD11R,1.500000X1.000000*%
%ADD12R,1.000000X1.500000*%
%ADD13RoundRect,0.650000X-0.650000X-4.150000X0.650000X-4.150000X0.650000X4.150000X-0.650000X4.150000X0*%
%ADD14C,1.600000*%
%ADD15R,1.700000X1.700000*%
%ADD16C,1.700000*%
%ADD17C,3.200000*%
%ADD18RoundRect,0.250000X0.550000X-0.550000X0.550000X0.550000X-0.550000X0.550000X-0.550000X-0.550000X0*%
%ADD19RoundRect,0.250000X-0.550000X0.550000X-0.550000X-0.550000X0.550000X-0.550000X0.550000X0.550000X0*%
G04 APERTURE END LIST*
%TO.C,JP4*%
G36*
X195060000Y-95690000D02*
G01*
X193560000Y-95690000D01*
X193560000Y-97290000D01*
X195060000Y-97290000D01*
X195060000Y-95690000D01*
G37*
%TO.C,JP2*%
G36*
X107374000Y-64274000D02*
G01*
X108974000Y-64274000D01*
X108974000Y-65774000D01*
X107374000Y-65774000D01*
X107374000Y-64274000D01*
G37*
D10*
%TO.C,J1*%
X192140000Y-142600000D02*
X101040000Y-142600000D01*
X101040000Y-132300000D01*
X192140000Y-132300000D01*
X192140000Y-142600000D01*
G36*
X192140000Y-142600000D02*
G01*
X101040000Y-142600000D01*
X101040000Y-132300000D01*
X192140000Y-132300000D01*
X192140000Y-142600000D01*
G37*
%TO.C,JP3*%
G36*
X195060000Y-116010000D02*
G01*
X193560000Y-116010000D01*
X193560000Y-117610000D01*
X195060000Y-117610000D01*
X195060000Y-116010000D01*
G37*
%TO.C,JP5*%
G36*
X195060000Y-75370000D02*
G01*
X193560000Y-75370000D01*
X193560000Y-76970000D01*
X195060000Y-76970000D01*
X195060000Y-75370000D01*
G37*
%TD*%
D11*
%TO.C,JP4*%
X194310000Y-95190000D03*
X194310000Y-96490000D03*
X194310000Y-97790000D03*
%TD*%
D12*
%TO.C,JP2*%
X106874000Y-65024000D03*
X108174000Y-65024000D03*
X109474000Y-65024000D03*
%TD*%
D13*
%TO.C,J1*%
X188160000Y-137000000D03*
X184200000Y-137000000D03*
X180240000Y-137000000D03*
X176280000Y-137000000D03*
X172320000Y-137000000D03*
X168360000Y-137000000D03*
X164400000Y-137000000D03*
X160440000Y-137000000D03*
X156480000Y-137000000D03*
X152520000Y-137000000D03*
X148560000Y-137000000D03*
X144600000Y-137000000D03*
X140640000Y-137000000D03*
X136680000Y-137000000D03*
X132720000Y-137000000D03*
X128760000Y-137000000D03*
X124800000Y-137000000D03*
X120840000Y-137000000D03*
X116880000Y-137000000D03*
X112920000Y-137000000D03*
X108960000Y-137000000D03*
X105000000Y-137000000D03*
%TD*%
D14*
%TO.C,C2*%
X100330000Y-83820000D03*
X100330000Y-78820000D03*
%TD*%
D15*
%TO.C,J3*%
X190500000Y-114300000D03*
D16*
X190500000Y-116840000D03*
X190500000Y-119380000D03*
%TD*%
D17*
%TO.C,REF0*%
X146500000Y-102000000D03*
%TD*%
D15*
%TO.C,J2*%
X105410000Y-68580000D03*
D16*
X107950000Y-68580000D03*
X110490000Y-68580000D03*
%TD*%
D18*
%TO.C,U1*%
X105410000Y-111760000D03*
D14*
X107950000Y-111760000D03*
X110490000Y-111760000D03*
X113030000Y-111760000D03*
X115570000Y-111760000D03*
X118110000Y-111760000D03*
X120650000Y-111760000D03*
X123190000Y-111760000D03*
X125730000Y-111760000D03*
X128270000Y-111760000D03*
X130810000Y-111760000D03*
X133350000Y-111760000D03*
X135890000Y-111760000D03*
X138430000Y-111760000D03*
X138430000Y-96520000D03*
X135890000Y-96520000D03*
X133350000Y-96520000D03*
X130810000Y-96520000D03*
X128270000Y-96520000D03*
X125730000Y-96520000D03*
X123190000Y-96520000D03*
X120650000Y-96520000D03*
X118110000Y-96520000D03*
X115570000Y-96520000D03*
X113030000Y-96520000D03*
X110490000Y-96520000D03*
X107950000Y-96520000D03*
X105410000Y-96520000D03*
%TD*%
D19*
%TO.C,U6*%
X130810000Y-116840000D03*
D14*
X128270000Y-116840000D03*
X125730000Y-116840000D03*
X123190000Y-116840000D03*
X120650000Y-116840000D03*
X118110000Y-116840000D03*
X115570000Y-116840000D03*
X115570000Y-124460000D03*
X118110000Y-124460000D03*
X120650000Y-124460000D03*
X123190000Y-124460000D03*
X125730000Y-124460000D03*
X128270000Y-124460000D03*
X130810000Y-124460000D03*
%TD*%
D11*
%TO.C,JP3*%
X194310000Y-115510000D03*
X194310000Y-116810000D03*
X194310000Y-118110000D03*
%TD*%
D15*
%TO.C,J5*%
X190500000Y-73660000D03*
D16*
X190500000Y-76200000D03*
X190500000Y-78740000D03*
%TD*%
D18*
%TO.C,U5*%
X153670000Y-83820000D03*
D14*
X156210000Y-83820000D03*
X158750000Y-83820000D03*
X161290000Y-83820000D03*
X163830000Y-83820000D03*
X166370000Y-83820000D03*
X168910000Y-83820000D03*
X171450000Y-83820000D03*
X173990000Y-83820000D03*
X176530000Y-83820000D03*
X179070000Y-83820000D03*
X181610000Y-83820000D03*
X184150000Y-83820000D03*
X186690000Y-83820000D03*
X186690000Y-68580000D03*
X184150000Y-68580000D03*
X181610000Y-68580000D03*
X179070000Y-68580000D03*
X176530000Y-68580000D03*
X173990000Y-68580000D03*
X171450000Y-68580000D03*
X168910000Y-68580000D03*
X166370000Y-68580000D03*
X163830000Y-68580000D03*
X161290000Y-68580000D03*
X158750000Y-68580000D03*
X156210000Y-68580000D03*
X153670000Y-68580000D03*
%TD*%
D18*
%TO.C,U4*%
X153670000Y-104140000D03*
D14*
X156210000Y-104140000D03*
X158750000Y-104140000D03*
X161290000Y-104140000D03*
X163830000Y-104140000D03*
X166370000Y-104140000D03*
X168910000Y-104140000D03*
X171450000Y-104140000D03*
X173990000Y-104140000D03*
X176530000Y-104140000D03*
X179070000Y-104140000D03*
X181610000Y-104140000D03*
X184150000Y-104140000D03*
X186690000Y-104140000D03*
X186690000Y-88900000D03*
X184150000Y-88900000D03*
X181610000Y-88900000D03*
X179070000Y-88900000D03*
X176530000Y-88900000D03*
X173990000Y-88900000D03*
X171450000Y-88900000D03*
X168910000Y-88900000D03*
X166370000Y-88900000D03*
X163830000Y-88900000D03*
X161290000Y-88900000D03*
X158750000Y-88900000D03*
X156210000Y-88900000D03*
X153670000Y-88900000D03*
%TD*%
D18*
%TO.C,U2*%
X105410000Y-88900000D03*
D14*
X107950000Y-88900000D03*
X110490000Y-88900000D03*
X113030000Y-88900000D03*
X115570000Y-88900000D03*
X118110000Y-88900000D03*
X120650000Y-88900000D03*
X123190000Y-88900000D03*
X125730000Y-88900000D03*
X128270000Y-88900000D03*
X130810000Y-88900000D03*
X133350000Y-88900000D03*
X135890000Y-88900000D03*
X138430000Y-88900000D03*
X138430000Y-73660000D03*
X135890000Y-73660000D03*
X133350000Y-73660000D03*
X130810000Y-73660000D03*
X128270000Y-73660000D03*
X125730000Y-73660000D03*
X123190000Y-73660000D03*
X120650000Y-73660000D03*
X118110000Y-73660000D03*
X115570000Y-73660000D03*
X113030000Y-73660000D03*
X110490000Y-73660000D03*
X107950000Y-73660000D03*
X105410000Y-73660000D03*
%TD*%
D11*
%TO.C,JP5*%
X194310000Y-74870000D03*
X194310000Y-76170000D03*
X194310000Y-77470000D03*
%TD*%
D14*
%TO.C,C4*%
X148590000Y-96520000D03*
X148590000Y-91520000D03*
%TD*%
%TO.C,C3*%
X148590000Y-119380000D03*
X148590000Y-114380000D03*
%TD*%
D18*
%TO.C,U3*%
X153670000Y-124460000D03*
D14*
X156210000Y-124460000D03*
X158750000Y-124460000D03*
X161290000Y-124460000D03*
X163830000Y-124460000D03*
X166370000Y-124460000D03*
X168910000Y-124460000D03*
X171450000Y-124460000D03*
X173990000Y-124460000D03*
X176530000Y-124460000D03*
X179070000Y-124460000D03*
X181610000Y-124460000D03*
X184150000Y-124460000D03*
X186690000Y-124460000D03*
X186690000Y-109220000D03*
X184150000Y-109220000D03*
X181610000Y-109220000D03*
X179070000Y-109220000D03*
X176530000Y-109220000D03*
X173990000Y-109220000D03*
X171450000Y-109220000D03*
X168910000Y-109220000D03*
X166370000Y-109220000D03*
X163830000Y-109220000D03*
X161290000Y-109220000D03*
X158750000Y-109220000D03*
X156210000Y-109220000D03*
X153670000Y-109220000D03*
%TD*%
D15*
%TO.C,J4*%
X190500000Y-93980000D03*
D16*
X190500000Y-96520000D03*
X190500000Y-99060000D03*
%TD*%
D14*
%TO.C,C5*%
X148590000Y-78740000D03*
X148590000Y-73740000D03*
%TD*%
%TO.C,C1*%
X100330000Y-106680000D03*
X100330000Y-101680000D03*
%TD*%
M02*
