M48
; DRILL file {KiCad 9.0.5} date 2026-03-27T15:19:39-0400
; FORMAT={-:-/ absolute / metric / decimal}
; #@! TF.CreationDate,2026-03-27T15:19:39-04:00
; #@! TF.GenerationSoftware,Kicad,Pcbnew,9.0.5
; #@! TF.FileFunction,Plated,1,2,PTH
FMAT,2
METRIC
; #@! TA.AperFunction,Plated,PTH,ViaDrill
T1C0.300
; #@! TA.AperFunction,Plated,PTH,ComponentDrill
T2C0.800
; #@! TA.AperFunction,Plated,PTH,ComponentDrill
T3C1.000
%
G90
G05
T1
X108.712Y-130.048
X115.081Y-72.071
X116.405Y-70.776
X117.8Y-71.748
X119.011Y-75.067
X121.034Y-114.977
X123.242Y-114.001
X124.46Y-130.648
X125.657Y-113.624
X127.868Y-74.967
X128.319Y-126.795
X128.468Y-114.488
X128.842Y-62.376
X128.842Y-67.385
X131.794Y-65.342
X133.957Y-67.471
X134.745Y-62.001
X135.533Y-74.967
X137.742Y-124.516
X137.976Y-123.701
X138.22Y-103.439
X140.11Y-106.306
X141.438Y-65.249
X142.425Y-67.735
X143.173Y-129.032
X145.234Y-113.231
X145.288Y-127.638
X145.288Y-130.048
X145.686Y-107.025
X146.198Y-106.126
X146.232Y-112.009
X146.431Y-112.89
X148.533Y-71.575
X149.335Y-70.921
X150.876Y-129.032
X151.572Y-68.805
X152.4Y-131.064
X152.955Y-77.725
X155.155Y-127.09
X155.407Y-62.274
X157.424Y-130.211
X159.585Y-64.029
X161.502Y-122.907
X161.751Y-112.309
X166.722Y-100.318
X168.91Y-92.964
X168.91Y-98.552
X169.228Y-63.279
X170.549Y-63.429
X170.963Y-61.623
X171.28Y-63.105
X175.133Y-64.643
X175.68Y-130.048
X176.37Y-71.142
X179.448Y-129.054
X180.848Y-130.648
X183.421Y-130.232
X186.69Y-92.964
X188.57Y-97.395
X189.484Y-130.556
X190.452Y-64.244
X193.775Y-68.166
T2
X100.33Y-78.82
X100.33Y-83.82
X100.33Y-101.68
X100.33Y-106.68
X105.41Y-73.66
X105.41Y-88.9
X105.41Y-96.52
X105.41Y-111.76
X107.95Y-73.66
X107.95Y-88.9
X107.95Y-96.52
X107.95Y-111.76
X110.49Y-73.66
X110.49Y-88.9
X110.49Y-96.52
X110.49Y-111.76
X113.03Y-73.66
X113.03Y-88.9
X113.03Y-96.52
X113.03Y-111.76
X115.57Y-73.66
X115.57Y-88.9
X115.57Y-96.52
X115.57Y-111.76
X115.57Y-116.84
X115.57Y-124.46
X118.11Y-73.66
X118.11Y-88.9
X118.11Y-96.52
X118.11Y-111.76
X118.11Y-116.84
X118.11Y-124.46
X120.65Y-73.66
X120.65Y-88.9
X120.65Y-96.52
X120.65Y-111.76
X120.65Y-116.84
X120.65Y-124.46
X123.19Y-73.66
X123.19Y-88.9
X123.19Y-96.52
X123.19Y-111.76
X123.19Y-116.84
X123.19Y-124.46
X125.73Y-73.66
X125.73Y-88.9
X125.73Y-96.52
X125.73Y-111.76
X125.73Y-116.84
X125.73Y-124.46
X128.27Y-73.66
X128.27Y-88.9
X128.27Y-96.52
X128.27Y-111.76
X128.27Y-116.84
X128.27Y-124.46
X130.81Y-73.66
X130.81Y-88.9
X130.81Y-96.52
X130.81Y-111.76
X130.81Y-116.84
X130.81Y-124.46
X133.35Y-73.66
X133.35Y-88.9
X133.35Y-96.52
X133.35Y-111.76
X135.89Y-73.66
X135.89Y-88.9
X135.89Y-96.52
X135.89Y-111.76
X138.43Y-73.66
X138.43Y-88.9
X138.43Y-96.52
X138.43Y-111.76
X148.59Y-73.74
X148.59Y-78.74
X148.59Y-91.52
X148.59Y-96.52
X148.59Y-114.38
X148.59Y-119.38
X153.67Y-68.58
X153.67Y-83.82
X153.67Y-88.9
X153.67Y-104.14
X153.67Y-109.22
X153.67Y-124.46
X156.21Y-68.58
X156.21Y-83.82
X156.21Y-88.9
X156.21Y-104.14
X156.21Y-109.22
X156.21Y-124.46
X158.75Y-68.58
X158.75Y-83.82
X158.75Y-88.9
X158.75Y-104.14
X158.75Y-109.22
X158.75Y-124.46
X161.29Y-68.58
X161.29Y-83.82
X161.29Y-88.9
X161.29Y-104.14
X161.29Y-109.22
X161.29Y-124.46
X163.83Y-68.58
X163.83Y-83.82
X163.83Y-88.9
X163.83Y-104.14
X163.83Y-109.22
X163.83Y-124.46
X166.37Y-68.58
X166.37Y-83.82
X166.37Y-88.9
X166.37Y-104.14
X166.37Y-109.22
X166.37Y-124.46
X168.91Y-68.58
X168.91Y-83.82
X168.91Y-88.9
X168.91Y-104.14
X168.91Y-109.22
X168.91Y-124.46
X171.45Y-68.58
X171.45Y-83.82
X171.45Y-88.9
X171.45Y-104.14
X171.45Y-109.22
X171.45Y-124.46
X173.99Y-68.58
X173.99Y-83.82
X173.99Y-88.9
X173.99Y-104.14
X173.99Y-109.22
X173.99Y-124.46
X176.53Y-68.58
X176.53Y-83.82
X176.53Y-88.9
X176.53Y-104.14
X176.53Y-109.22
X176.53Y-124.46
X179.07Y-68.58
X179.07Y-83.82
X179.07Y-88.9
X179.07Y-104.14
X179.07Y-109.22
X179.07Y-124.46
X181.61Y-68.58
X181.61Y-83.82
X181.61Y-88.9
X181.61Y-104.14
X181.61Y-109.22
X181.61Y-124.46
X184.15Y-68.58
X184.15Y-83.82
X184.15Y-88.9
X184.15Y-104.14
X184.15Y-109.22
X184.15Y-124.46
X186.69Y-68.58
X186.69Y-83.82
X186.69Y-88.9
X186.69Y-104.14
X186.69Y-109.22
X186.69Y-124.46
T3
X105.41Y-68.58
X107.95Y-68.58
X110.49Y-68.58
X190.5Y-73.66
X190.5Y-76.2
X190.5Y-78.74
X190.5Y-93.98
X190.5Y-96.52
X190.5Y-99.06
X190.5Y-114.3
X190.5Y-116.84
X190.5Y-119.38
M30
